<?xml version="1.0" encoding="UTF-8"?><svg id="Layer_2" xmlns="http://www.w3.org/2000/svg" width="200" height="200" viewBox="0 0 200 200"><defs><style>.cls-1{fill:#f4becd;}.cls-2{fill:#055946;}</style></defs><g><path class="cls-2" d="M55.88,123.32c.37,0,.73,.16,.99,.45,.14,.16,.38,.51,.32,1.02l-6.99,62.63c-.06,.54-.45,.99-.99,1.14-5.01,1.44-10.08,2.18-15.08,2.18s-10.07-.73-15.08-2.18c-.54-.16-.93-.6-.99-1.14l-6.99-62.63c-.06-.51,.18-.86,.32-1.02,.25-.28,.61-.45,.98-.45,.08,0,.17,0,.26,.02,7.13,1.32,14.36,1.99,21.49,1.99s14.36-.67,21.49-1.99c.09-.02,.17-.02,.25-.02m0-2c-.2,0-.41,.02-.62,.06-7.04,1.3-14.09,1.96-21.13,1.96s-14.09-.65-21.13-1.96c-.21-.04-.42-.06-.62-.06-1.93,0-3.52,1.68-3.3,3.69l6.99,62.63c.15,1.35,1.12,2.46,2.43,2.84,5.21,1.5,10.42,2.25,15.63,2.25s10.42-.75,15.63-2.25c1.31-.38,2.28-1.49,2.43-2.84l6.99-62.63c.22-2.01-1.36-3.69-3.3-3.69h0Z"/><path class="cls-1" d="M9.42,121.18c.38-.76,1.03-1.35,1.83-1.64l-.18-1.59c-.06-.51,.18-.86,.32-1.02,.25-.28,.61-.45,.98-.45,.08,0,.17,0,.26,.02,7.13,1.32,14.36,1.99,21.49,1.99s14.36-.67,21.49-1.99c.09-.02,.17-.02,.25-.02,.37,0,.73,.16,.99,.45,.14,.16,.38,.51,.32,1.02l-.18,1.59c.8,.29,1.45,.88,1.83,1.64l.34-3c.22-2.01-1.36-3.69-3.3-3.69-.2,0-.41,.02-.62,.06-7.04,1.3-14.09,1.96-21.13,1.96s-14.09-.65-21.13-1.96c-.21-.04-.42-.06-.62-.06-1.93,0-3.52,1.68-3.3,3.69l.34,3Z"/><path class="cls-1" d="M9.42,114.34c.38-.76,1.03-1.35,1.83-1.64l-.18-1.59c-.06-.51,.18-.86,.32-1.02,.25-.28,.61-.45,.98-.45,.08,0,.17,0,.26,.02,7.13,1.32,14.36,1.99,21.49,1.99s14.36-.67,21.49-1.99c.09-.02,.17-.02,.25-.02,.37,0,.73,.16,.99,.45,.14,.16,.38,.51,.32,1.02l-.18,1.59c.8,.29,1.45,.88,1.83,1.64l.34-3c.22-2.01-1.36-3.69-3.3-3.69-.2,0-.41,.02-.62,.06-7.04,1.3-14.09,1.96-21.13,1.96s-14.09-.65-21.13-1.96c-.21-.04-.42-.06-.62-.06-1.93,0-3.52,1.68-3.3,3.69l.34,3Z"/><path class="cls-1" d="M9.42,107.51c.38-.76,1.03-1.35,1.83-1.64l-.18-1.59c-.06-.51,.18-.86,.32-1.02,.25-.28,.61-.45,.98-.45,.08,0,.17,0,.26,.02,7.13,1.32,14.36,1.99,21.49,1.99s14.36-.67,21.49-1.99c.09-.02,.17-.02,.25-.02,.37,0,.73,.16,.99,.45,.14,.16,.38,.51,.32,1.02l-.18,1.59c.8,.29,1.45,.88,1.83,1.64l.34-3c.22-2.01-1.36-3.69-3.3-3.69-.2,0-.41,.02-.62,.06-7.04,1.3-14.09,1.96-21.13,1.96s-14.09-.65-21.13-1.96c-.21-.04-.42-.06-.62-.06-1.93,0-3.52,1.68-3.3,3.69l.34,3Z"/><path class="cls-1" d="M9.42,100.67c.38-.76,1.03-1.35,1.83-1.64l-.18-1.59c-.06-.51,.18-.86,.32-1.02,.25-.28,.61-.45,.98-.45,.08,0,.17,0,.26,.02,7.13,1.32,14.36,1.99,21.49,1.99s14.36-.67,21.49-1.99c.09-.02,.17-.02,.25-.02,.37,0,.73,.16,.99,.45,.14,.16,.38,.51,.32,1.02l-.18,1.59c.8,.29,1.45,.88,1.83,1.64l.34-3c.22-2.01-1.36-3.69-3.3-3.69-.2,0-.41,.02-.62,.06-7.04,1.3-14.09,1.96-21.13,1.96s-14.09-.65-21.13-1.96c-.21-.04-.42-.06-.62-.06-1.93,0-3.52,1.68-3.3,3.69l.34,3Z"/><path class="cls-1" d="M9.42,93.84c.38-.76,1.03-1.35,1.83-1.64l-.18-1.59c-.06-.51,.18-.86,.32-1.02,.25-.28,.61-.45,.98-.45,.08,0,.17,0,.26,.02,7.13,1.32,14.36,1.99,21.49,1.99s14.36-.67,21.49-1.99c.09-.02,.17-.02,.25-.02,.37,0,.73,.16,.99,.45,.14,.16,.38,.51,.32,1.02l-.18,1.59c.8,.29,1.45,.88,1.83,1.64l.34-3c.22-2.01-1.36-3.69-3.3-3.69-.2,0-.41,.02-.62,.06-7.04,1.3-14.09,1.96-21.13,1.96s-14.09-.65-21.13-1.96c-.21-.04-.42-.06-.62-.06-1.93,0-3.52,1.68-3.3,3.69l.34,3Z"/></g><g><path class="cls-2" d="M66.64,71.38h0m5.57,.98h0m-5.57,.24c.72,.11,1.44,.16,2.16,.16s1.44-.05,2.16-.16v115.49l-4.33-2.9V72.6m-1.01-2.21c-.53,0-.99,.43-.99,.99v114.34c0,.33,.17,.64,.44,.83l6.33,4.24c.18,.12,.37,.17,.55,.17,.52,0,1-.41,1-1V71.38c0-.56-.46-.99-.99-.99-.08,0-.15,0-.23,.03-.98,.23-1.97,.35-2.95,.35s-1.97-.12-2.95-.35c-.08-.02-.15-.03-.23-.03h0Z"/><path class="cls-1" d="M77.6,70.39c-.08,0-.15,0-.23,.03-.88,.21-1.77,.31-2.65,.33,.15,.17,.25,.39,.25,.63v1.36c.54-.02,1.08-.06,1.62-.14v115.49l-1.62-1.09v2.41l2.07,1.39c.18,.12,.37,.17,.55,.17,.52,0,1-.41,1-1V71.38c0-.56-.46-.99-.99-.99Z"/><path class="cls-1" d="M83.22,70.39c-.08,0-.15,0-.23,.03-.88,.21-1.77,.31-2.65,.33,.15,.17,.25,.39,.25,.63v1.36c.54-.02,1.08-.06,1.62-.14v115.49l-1.62-1.09v2.41l2.07,1.39c.18,.12,.37,.17,.55,.17,.52,0,1-.41,1-1V71.38c0-.56-.46-.99-.99-.99Z"/><path class="cls-1" d="M88.84,70.39c-.08,0-.15,0-.23,.03-.88,.21-1.77,.31-2.65,.33,.15,.17,.25,.39,.25,.63v1.36c.54-.02,1.08-.06,1.62-.14v115.49l-1.62-1.09v2.41l2.07,1.39c.18,.12,.37,.17,.55,.17,.52,0,1-.41,1-1V71.38c0-.56-.46-.99-.99-.99Z"/><path class="cls-1" d="M94.47,70.39c-.08,0-.15,0-.23,.03-.88,.21-1.77,.31-2.65,.33,.15,.17,.25,.39,.25,.63v1.36c.54-.02,1.08-.06,1.62-.14v115.49l-1.62-1.09v2.41l2.07,1.39c.18,.12,.37,.17,.55,.17,.52,0,1-.41,1-1V71.38c0-.56-.46-.99-.99-.99Z"/><path class="cls-1" d="M100.09,70.39c-.08,0-.15,0-.23,.03-.88,.21-1.77,.31-2.65,.33,.15,.17,.25,.39,.25,.63v1.36c.54-.02,1.08-.06,1.62-.14v115.49l-1.62-1.09v2.41l2.07,1.39c.18,.12,.37,.17,.55,.17,.52,0,1-.41,1-1V71.38c0-.56-.46-.99-.99-.99Z"/></g><g><path class="cls-2" d="M147.4,155.17c.37,0,.73,.16,.99,.45,.14,.16,.38,.51,.32,1.02l-3.41,30.61c-.06,.54-.45,.99-.99,1.14-5.01,1.44-10.08,2.18-15.08,2.18s-10.07-.73-15.08-2.18c-.54-.16-.93-.6-.99-1.14l-3.41-30.61c-.06-.51,.18-.86,.32-1.02,.25-.28,.61-.45,.99-.45,.08,0,.17,0,.26,.02,7.63,1.41,12.82,1.99,17.92,1.99s10.29-.58,17.92-1.99c.09-.02,.17-.02,.26-.02m0-2c-.2,0-.41,.02-.62,.06-7.04,1.3-12.3,1.96-17.56,1.96s-10.51-.65-17.56-1.96c-.21-.04-.42-.06-.62-.06-1.93,0-3.52,1.68-3.3,3.69l3.41,30.61c.15,1.35,1.12,2.46,2.43,2.84,5.21,1.5,10.42,2.25,15.63,2.25s10.42-.75,15.63-2.25c1.31-.38,2.28-1.49,2.43-2.84l3.41-30.61c.22-2.01-1.36-3.69-3.3-3.69h0Z"/><circle class="cls-2" cx="118.28" cy="182.88" r="4.65"/><circle class="cls-2" cx="129.48" cy="184.52" r="4.65"/><circle class="cls-2" cx="131.72" cy="173.97" r="4.65"/><circle class="cls-2" cx="120.76" cy="172.1" r="4.65"/><circle class="cls-2" cx="116.11" cy="162.38" r="4.65"/><circle class="cls-2" cx="141.46" cy="171.68" r="4.65"/><circle class="cls-2" cx="126.75" cy="163.02" r="4.65"/><circle class="cls-2" cx="137.33" cy="162.38" r="4.65"/><circle class="cls-2" cx="139.74" cy="182.66" r="4.65"/></g><g><path class="cls-1" d="M111.05,115.64h0c.08,0,.17,0,.25,.02,7.63,1.41,12.82,1.99,17.92,1.99s10.29-.58,17.92-1.99c.09-.02,.17-.02,.25-.02,.37,0,.73,.16,.99,.45,.14,.16,.38,.51,.32,1.02l-3.41,30.61c-.06,.54-.45,.99-.99,1.14-5.01,1.44-10.08,2.18-15.08,2.18s-10.07-.73-15.08-2.18c-.54-.16-.93-.6-.99-1.14l-3.41-30.61c-.06-.51,.18-.86,.32-1.02,.25-.28,.61-.45,.99-.45m0-2c-1.93,0-3.52,1.68-3.3,3.69l3.41,30.61c.15,1.35,1.12,2.46,2.43,2.84,5.21,1.5,10.42,2.25,15.63,2.25s10.42-.75,15.63-2.25c1.31-.38,2.28-1.49,2.43-2.84l3.41-30.61c.22-2.01-1.36-3.69-3.3-3.69-.2,0-.41,.02-.62,.06-7.04,1.3-12.3,1.96-17.56,1.96s-10.51-.65-17.56-1.96c-.21-.04-.42-.06-.62-.06h0Z"/><circle class="cls-1" cx="140.17" cy="143.36" r="4.65"/><circle class="cls-1" cx="128.97" cy="145" r="4.65"/><circle class="cls-1" cx="126.73" cy="134.45" r="4.65"/><circle class="cls-1" cx="137.69" cy="132.58" r="4.65"/><circle class="cls-1" cx="142.34" cy="122.85" r="4.65"/><circle class="cls-1" cx="116.98" cy="132.15" r="4.65"/><circle class="cls-1" cx="131.69" cy="123.5" r="4.65"/><circle class="cls-1" cx="121.11" cy="122.85" r="4.65"/><circle class="cls-1" cx="118.7" cy="143.13" r="4.65"/></g><g><path class="cls-1" d="M147.15,76.11c.37,0,.73,.16,.99,.45,.14,.16,.38,.51,.32,1.02l-3.41,30.61c-.06,.54-.45,.99-.99,1.14-5.01,1.44-10.08,2.18-15.08,2.18s-10.07-.73-15.08-2.18c-.54-.16-.93-.6-.99-1.14l-3.41-30.61c-.06-.51,.18-.86,.32-1.02,.25-.28,.61-.45,.99-.45,.08,0,.17,0,.25,.02,7.63,1.41,12.82,1.99,17.92,1.99s10.29-.58,17.92-1.99c.09-.02,.17-.02,.25-.02h0m0-2c-.2,0-.41,.02-.62,.06-7.04,1.3-12.3,1.96-17.56,1.96s-10.51-.65-17.56-1.96c-.21-.04-.42-.06-.62-.06-1.93,0-3.52,1.68-3.3,3.69l3.41,30.61c.15,1.35,1.12,2.46,2.43,2.84,5.21,1.5,10.42,2.25,15.63,2.25s10.42-.75,15.63-2.25c1.31-.38,2.28-1.49,2.43-2.84l3.41-30.61c.22-2.01-1.36-3.69-3.3-3.69h0Z"/><path class="cls-1" d="M122.67,103.83c0,2.57-2.08,4.65-4.65,4.65s-4.65-2.08-4.65-4.65,2.08-4.65,4.65-4.65,4.65,2.08,4.65,4.65Z"/><circle class="cls-1" cx="129.22" cy="105.47" r="4.65"/><path class="cls-1" d="M136.12,94.92c0,2.57-2.08,4.65-4.65,4.65s-4.65-2.08-4.65-4.65,2.08-4.65,4.65-4.65,4.65,2.08,4.65,4.65Z"/><circle class="cls-1" cx="120.5" cy="93.05" r="4.65"/><path class="cls-1" d="M120.5,83.32c0,2.57-2.08,4.65-4.65,4.65s-4.65-2.08-4.65-4.65,2.08-4.65,4.65-4.65,4.65,2.08,4.65,4.65Z"/><circle class="cls-1" cx="141.21" cy="92.63" r="4.65"/><circle class="cls-1" cx="126.5" cy="83.97" r="4.65"/><path class="cls-1" d="M141.73,83.32c0,2.57-2.08,4.65-4.65,4.65s-4.65-2.08-4.65-4.65,2.08-4.65,4.65-4.65,4.65,2.08,4.65,4.65Z"/><path class="cls-1" d="M144.14,103.6c0,2.57-2.08,4.65-4.65,4.65s-4.65-2.08-4.65-4.65,2.08-4.65,4.65-4.65,4.65,2.08,4.65,4.65Z"/></g><path class="cls-2" d="M187.26,161.4c-.16,0-.32,.01-.48,.04-5.49,1.02-9.59,1.53-13.69,1.53s-8.2-.51-13.69-1.53c-.16-.03-.32-.04-.48-.04-1.51,0-2.74,1.31-2.57,2.87l2.66,23.87c.12,1.06,.87,1.92,1.89,2.22,4.06,1.17,8.13,1.76,12.19,1.76s8.13-.59,12.19-1.76c1.02-.29,1.77-1.16,1.89-2.22l2.66-23.87c.17-1.57-1.06-2.87-2.57-2.87Zm-28.79,2.2c.11-.13,.27-.2,.44-.2,.04,0,.08,0,.12,.01,5.98,1.11,10.05,1.56,14.05,1.56s8.08-.45,14.06-1.56c.04,0,.08-.01,.12-.01,.17,0,.33,.07,.44,.2,.08,.09,.17,.24,.14,.45l-.68,6.13c-5.41-5.04-10.35-1.8-14.74,1.09-4.57,3.01-8.53,5.6-13.24,.41l-.85-7.63c-.02-.22,.06-.36,.14-.45Zm26.71,24.32c-.03,.24-.21,.44-.46,.52-3.86,1.11-7.78,1.68-11.63,1.68s-7.77-.57-11.63-1.68c-.25-.07-.43-.28-.46-.52l-1.47-13.17c1.77,1.39,3.49,1.94,5.16,1.94,3.15,0,6.1-1.94,8.84-3.75,4.62-3.04,8.6-5.66,13.35-.18l-1.69,15.16Z"/><path class="cls-1" d="M156.35,133.56l2.66,23.87c.12,1.06,.87,1.92,1.89,2.22,4.06,1.17,8.13,1.76,12.19,1.76s8.13-.59,12.19-1.76c1.02-.29,1.77-1.16,1.89-2.22l2.66-23.87c.17-1.57-1.06-2.87-2.57-2.87-.16,0-.32,.01-.48,.04-5.49,1.02-9.59,1.53-13.69,1.53-4.1,0-8.2-.51-13.69-1.53-.16-.03-.32-.04-.48-.04-1.51,0-2.74,1.31-2.57,2.87Zm31.5-.22l-.85,7.63c-4.71,5.19-8.67,2.6-13.24-.41-4.39-2.89-9.33-6.14-14.74-1.09l-.68-6.13c-.02-.22,.06-.36,.14-.45,.11-.13,.27-.2,.44-.2,.04,0,.08,0,.12,.01,5.98,1.11,10.05,1.56,14.06,1.56,4,0,8.08-.45,14.05-1.56,.04,0,.08-.01,.12-.01,.17,0,.33,.07,.44,.2,.08,.09,.17,.24,.14,.45Zm-28.54,8.71c4.75-5.48,8.73-2.86,13.35,.18,2.74,1.8,5.69,3.75,8.84,3.75,1.66,0,3.38-.55,5.16-1.94l-1.47,13.17c-.03,.24-.21,.44-.46,.52-3.86,1.11-7.78,1.68-11.63,1.68-3.86,0-7.77-.57-11.63-1.68-.25-.07-.43-.28-.46-.52l-1.69-15.16Z"/><path class="cls-1" d="M187.26,99.96c-.16,0-.32,.01-.48,.04-5.49,1.02-9.59,1.53-13.69,1.53s-8.2-.51-13.69-1.53c-.16-.03-.32-.04-.48-.04-1.51,0-2.74,1.31-2.57,2.87l2.66,23.87c.12,1.06,.87,1.92,1.89,2.22,4.06,1.17,8.13,1.76,12.19,1.76s8.13-.59,12.19-1.76c1.02-.29,1.77-1.16,1.89-2.22l2.66-23.87c.17-1.57-1.06-2.87-2.57-2.87Zm-28.79,2.2c.11-.13,.27-.2,.44-.2,.04,0,.08,0,.12,.01,5.98,1.11,10.05,1.56,14.05,1.56s8.08-.45,14.06-1.56c.04,0,.08-.01,.12-.01,.17,0,.33,.07,.44,.2,.08,.09,.17,.24,.14,.45l-.68,6.13c-5.41-5.04-10.35-1.8-14.74,1.09-4.57,3.01-8.53,5.6-13.24,.41l-.85-7.63c-.02-.22,.06-.36,.14-.45Zm26.71,24.32c-.03,.24-.21,.44-.46,.52-3.86,1.11-7.78,1.68-11.63,1.68s-7.77-.57-11.63-1.68c-.25-.07-.43-.28-.46-.52l-1.47-13.17c1.77,1.39,3.49,1.94,5.16,1.94,3.15,0,6.1-1.94,8.84-3.75,4.62-3.04,8.6-5.66,13.35-.18l-1.69,15.16Z"/><g><path class="cls-2" d="M47.16,11.44c2.11,0,3.83,1.72,3.83,3.83V54.58c0,2.11-1.72,3.83-3.83,3.83H16.12c-2.11,0-3.83-1.72-3.83-3.83V15.28c0-2.11,1.72-3.83,3.83-3.83h31.04m0-2H16.12c-3.22,0-5.83,2.61-5.83,5.83V54.58c0,3.22,2.61,5.83,5.83,5.83h31.04c3.22,0,5.83-2.61,5.83-5.83V15.28c0-3.22-2.61-5.83-5.83-5.83h0Z"/><path class="cls-2" d="M23.13,54.7c-.3,0-.59-.13-.79-.38l-3.2-4.07c-.34-.43-.27-1.06,.17-1.4,.44-.34,1.06-.27,1.4,.17l3.2,4.07c.34,.43,.27,1.06-.17,1.4-.18,.14-.4,.21-.62,.21Z"/><path class="cls-2" d="M29.93,49.76c-.52,0-.96-.4-1-.93-.04-.55,.38-1.03,.93-1.07l4.26-.29c.57-.03,1.03,.38,1.07,.93,.04,.55-.38,1.03-.93,1.07l-4.26,.29s-.05,0-.07,0Z"/><path class="cls-2" d="M43.28,52.67c-.41,0-.79-.25-.94-.65l-2.04-5.52c-.19-.52,.07-1.09,.59-1.28,.52-.19,1.09,.07,1.28,.59l2.04,5.52c.19,.52-.07,1.09-.59,1.28-.11,.04-.23,.06-.35,.06Z"/><path class="cls-2" d="M32.93,56.01s-.04,0-.05,0l-5.52-.29c-.55-.03-.97-.5-.95-1.05,.03-.55,.46-.98,1.05-.95l5.52,.29c.55,.03,.97,.5,.95,1.05-.03,.53-.47,.95-1,.95Z"/><path class="cls-2" d="M23.88,48.54c-.55,0-1-.45-1-1v-4.51c0-.55,.45-1,1-1s1,.45,1,1v4.51c0,.55-.45,1-1,1Z"/><path class="cls-2" d="M15.81,45.04s-.08,0-.12,0c-.55-.07-.94-.57-.87-1.11l.87-7.15c.07-.55,.56-.94,1.11-.87,.55,.07,.94,.57,.87,1.11l-.87,7.15c-.06,.51-.49,.88-.99,.88Z"/><path class="cls-2" d="M20.38,40.46c-.45,0-.86-.31-.97-.76-.13-.54,.2-1.08,.74-1.21l3.92-.96c.54-.13,1.08,.2,1.21,.73,.13,.54-.2,1.08-.74,1.21l-3.92,.96c-.08,.02-.16,.03-.24,.03Z"/><path class="cls-2" d="M29.49,40.71c-.22,0-.44-.07-.62-.21l-1.84-1.45c-.43-.34-.51-.97-.17-1.4,.34-.43,.97-.51,1.4-.17l1.84,1.45c.43,.34,.51,.97,.17,1.4-.2,.25-.49,.38-.79,.38Z"/><path class="cls-2" d="M46.4,57.03h-4.07c-.55,0-1-.45-1-1s.45-1,1-1h4.07c.55,0,1,.45,1,1s-.45,1-1,1Z"/><path class="cls-2" d="M46.4,51.21c-.55,0-1-.45-1-1v-6.1c0-.55,.45-1,1-1s1,.45,1,1v6.1c0,.55-.45,1-1,1Z"/><path class="cls-2" d="M42.33,42.06h-2.18c-.55,0-1-.45-1-1s.45-1,1-1h2.18c.55,0,1,.45,1,1s-.45,1-1,1Z"/><path class="cls-2" d="M34.77,39.5c-.35,0-.68-.18-.87-.5l-3.13-5.44c-.28-.48-.11-1.09,.37-1.37,.48-.28,1.09-.11,1.37,.37l3.13,5.44c.28,.48,.11,1.09-.37,1.37-.16,.09-.33,.13-.5,.13Z"/><path class="cls-2" d="M42.33,32.9h-4.36c-.55,0-1-.45-1-1s.45-1,1-1h4.36c.55,0,1,.45,1,1s-.45,1-1,1Z"/><path class="cls-2" d="M27.22,35.93h-2.91c-.55,0-1-.45-1-1s.45-1,1-1h2.91c.55,0,1,.45,1,1s-.45,1-1,1Z"/><path class="cls-2" d="M17.19,55.86c-.55,0-1-.45-1-1v-3.2c0-.55,.45-1,1-1s1,.45,1,1v3.2c0,.55-.45,1-1,1Z"/><path class="cls-2" d="M20.38,32.9c-.32,0-.63-.15-.83-.43l-3.2-4.65c-.31-.46-.2-1.08,.26-1.39,.46-.31,1.08-.2,1.39,.26l3.2,4.65c.31,.46,.2,1.08-.26,1.39-.17,.12-.37,.18-.57,.18Z"/><path class="cls-2" d="M25.76,30.57c-.27,0-.54-.11-.74-.33-.37-.41-.34-1.04,.07-1.41l4.17-3.78c.41-.37,1.04-.34,1.41,.07,.37,.41,.34,1.04-.07,1.41l-4.17,3.78c-.19,.17-.43,.26-.67,.26Z"/><path class="cls-2" d="M41.24,26.8h-4.72c-.55,0-1-.45-1-1s.45-1,1-1h4.72c.55,0,1,.45,1,1s-.45,1-1,1Z"/><path class="cls-2" d="M47.56,35.93c-.55,0-1-.45-1-1v-7.24c0-.55,.45-1,1-1s1,.45,1,1v7.24c0,.55-.45,1-1,1Z"/><path class="cls-2" d="M42.33,38.13h-2.18c-.55,0-1-.45-1-1s.45-1,1-1h2.18c.55,0,1,.45,1,1s-.45,1-1,1Z"/><path class="cls-2" d="M48.73,42.06h-2.33c-.55,0-1-.45-1-1s.45-1,1-1h2.33c.55,0,1,.45,1,1s-.45,1-1,1Z"/><path class="cls-2" d="M27.84,45.98c-.55,0-1-.45-1-1v-1.16c0-.55,.45-1,1-1s1,.45,1,1v1.16c0,.55-.45,1-1,1Z"/><path class="cls-2" d="M22.35,23.89h-1.96c-.55,0-1-.45-1-1s.45-1,1-1h1.96c.55,0,1,.45,1,1s-.45,1-1,1Z"/><path class="cls-2" d="M27.22,23.89c-.36,0-.7-.19-.88-.53-.26-.49-.08-1.09,.41-1.35l2.71-1.45c.48-.26,1.09-.08,1.35,.41,.26,.49,.08,1.09-.41,1.35l-2.71,1.45c-.15,.08-.31,.12-.47,.12Z"/><path class="cls-2" d="M35.27,23.89c-.5,0-.93-.37-.99-.87l-.49-3.76c-.07-.55,.32-1.05,.86-1.12,.55-.08,1.05,.32,1.12,.86l.49,3.76c.07,.55-.32,1.05-.86,1.12-.04,0-.09,0-.13,0Z"/><path class="cls-2" d="M44.37,20.73h-4.21c-.55,0-1-.45-1-1s.45-1,1-1h4.21c.55,0,1,.45,1,1s-.45,1-1,1Z"/><path class="cls-2" d="M44.37,28.69c-.12,0-.24-.02-.36-.07-.51-.2-.77-.78-.57-1.3l1.35-3.46c.2-.51,.78-.77,1.3-.57,.51,.2,.77,.78,.57,1.3l-1.35,3.46c-.15,.4-.53,.64-.93,.64Z"/><path class="cls-2" d="M37.09,29.97h-5.03c-.55,0-1-.45-1-1s.45-1,1-1h5.03c.55,0,1,.45,1,1s-.45,1-1,1Z"/><path class="cls-2" d="M37.09,46.85c-.55,0-1-.45-1-1v-2.9c0-.55,.45-1,1-1s1,.45,1,1v2.9c0,.55-.45,1-1,1Z"/><path class="cls-2" d="M39.18,52.67h-2.43c-.55,0-1-.45-1-1s.45-1,1-1h2.43c.55,0,1,.45,1,1s-.45,1-1,1Z"/><path class="cls-2" d="M19.64,18.05s-.05,0-.08,0l-3.1-.24c-.55-.04-.96-.52-.92-1.08s.54-.96,1.08-.92l3.1,.24c.55,.04,.96,.52,.92,1.08-.04,.52-.48,.92-1,.92Z"/><path class="cls-2" d="M15.23,24.62s-.09,0-.14,0c-.55-.08-.93-.58-.85-1.13l.36-2.61c.08-.55,.58-.93,1.13-.85,.55,.08,.93,.58,.85,1.13l-.36,2.61c-.07,.5-.5,.86-.99,.86Z"/><path class="cls-2" d="M26.28,20.13c-.36,0-.71-.19-.88-.53-.26-.49-.07-1.09,.42-1.35l2.29-1.21c.49-.26,1.09-.07,1.35,.41,.26,.49,.07,1.09-.42,1.35l-2.29,1.21c-.15,.08-.31,.12-.47,.12Z"/><path class="cls-2" d="M38.88,16.73c-.15,0-.31-.04-.46-.11l-2.36-1.21c-.49-.25-.68-.85-.43-1.35,.25-.49,.85-.68,1.35-.43l2.36,1.21c.49,.25,.68,.85,.43,1.35-.18,.35-.53,.54-.89,.54Z"/><path class="cls-2" d="M30.17,14.66h-4.41c-.55,0-1-.45-1-1s.45-1,1-1h4.41c.55,0,1,.45,1,1s-.45,1-1,1Z"/><path class="cls-2" d="M47.56,22.01c-.55,0-1-.45-1-1v-5.89c0-.55,.45-1,1-1s1,.45,1,1v5.89c0,.55-.45,1-1,1Z"/><path class="cls-2" d="M42.33,17.33c-.28,0-.56-.12-.75-.34-.36-.42-.32-1.05,.09-1.41l.83-.73c.42-.36,1.05-.32,1.41,.1,.36,.42,.32,1.05-.09,1.41l-.83,.73c-.19,.17-.42,.25-.66,.25Z"/><path class="cls-1" d="M95.3,11.59c2.11,0,3.83,1.72,3.83,3.83V54.73c0,2.11-1.72,3.83-3.83,3.83h-31.04c-2.11,0-3.83-1.72-3.83-3.83V15.43c0-2.11,1.72-3.83,3.83-3.83h31.04m0-2h-31.04c-3.22,0-5.83,2.61-5.83,5.83V54.73c0,3.22,2.61,5.83,5.83,5.83h31.04c3.22,0,5.83-2.61,5.83-5.83V15.43c0-3.22-2.61-5.83-5.83-5.83h0Z"/><path class="cls-1" d="M71.27,54.85c-.3,0-.59-.13-.79-.38l-3.2-4.07c-.34-.43-.27-1.06,.17-1.4,.44-.34,1.06-.27,1.4,.17l3.2,4.07c.34,.43,.27,1.06-.17,1.4-.18,.14-.4,.21-.62,.21Z"/><path class="cls-1" d="M78.07,49.91c-.52,0-.96-.4-1-.93-.04-.55,.38-1.03,.93-1.07l4.26-.29c.58-.03,1.03,.38,1.07,.93,.04,.55-.38,1.03-.93,1.07l-4.26,.29s-.05,0-.07,0Z"/><path class="cls-1" d="M91.42,52.82c-.41,0-.79-.25-.94-.65l-2.04-5.52c-.19-.52,.07-1.09,.59-1.28,.52-.19,1.09,.07,1.28,.59l2.04,5.52c.19,.52-.07,1.09-.59,1.28-.11,.04-.23,.06-.35,.06Z"/><path class="cls-1" d="M81.08,56.16s-.04,0-.05,0l-5.52-.29c-.55-.03-.97-.5-.95-1.05,.03-.55,.47-.98,1.05-.95l5.52,.29c.55,.03,.97,.5,.95,1.05-.03,.53-.47,.95-1,.95Z"/><path class="cls-1" d="M72.03,48.69c-.55,0-1-.45-1-1v-4.51c0-.55,.45-1,1-1s1,.45,1,1v4.51c0,.55-.45,1-1,1Z"/><path class="cls-1" d="M63.95,45.19s-.08,0-.12,0c-.55-.07-.94-.57-.87-1.11l.87-7.15c.07-.55,.56-.94,1.11-.87,.55,.07,.94,.57,.87,1.11l-.87,7.15c-.06,.51-.49,.88-.99,.88Z"/><path class="cls-1" d="M68.53,40.61c-.45,0-.86-.31-.97-.76-.13-.54,.2-1.08,.74-1.21l3.92-.96c.54-.13,1.08,.2,1.21,.73s-.2,1.08-.74,1.21l-3.92,.96c-.08,.02-.16,.03-.24,.03Z"/><path class="cls-1" d="M77.63,40.86c-.22,0-.43-.07-.62-.21l-1.84-1.45c-.43-.34-.51-.97-.17-1.4,.34-.43,.97-.51,1.4-.17l1.84,1.45c.43,.34,.51,.97,.17,1.4-.2,.25-.49,.38-.79,.38Z"/><path class="cls-1" d="M94.54,57.18h-4.07c-.55,0-1-.45-1-1s.45-1,1-1h4.07c.55,0,1,.45,1,1s-.45,1-1,1Z"/><path class="cls-1" d="M94.54,51.36c-.55,0-1-.45-1-1v-6.1c0-.55,.45-1,1-1s1,.45,1,1v6.1c0,.55-.45,1-1,1Z"/><path class="cls-1" d="M90.47,42.21h-2.18c-.55,0-1-.45-1-1s.45-1,1-1h2.18c.55,0,1,.45,1,1s-.45,1-1,1Z"/><path class="cls-1" d="M82.92,39.65c-.35,0-.68-.18-.87-.5l-3.13-5.44c-.28-.48-.11-1.09,.37-1.37,.48-.27,1.09-.11,1.37,.37l3.13,5.44c.28,.48,.11,1.09-.37,1.37-.16,.09-.33,.13-.5,.13Z"/><path class="cls-1" d="M90.47,33.05h-4.36c-.55,0-1-.45-1-1s.45-1,1-1h4.36c.55,0,1,.45,1,1s-.45,1-1,1Z"/><path class="cls-1" d="M75.36,36.08h-2.91c-.55,0-1-.45-1-1s.45-1,1-1h2.91c.55,0,1,.45,1,1s-.45,1-1,1Z"/><path class="cls-1" d="M65.33,56.01c-.55,0-1-.45-1-1v-3.2c0-.55,.45-1,1-1s1,.45,1,1v3.2c0,.55-.45,1-1,1Z"/><path class="cls-1" d="M68.53,33.05c-.32,0-.63-.15-.83-.43l-3.2-4.65c-.31-.46-.2-1.08,.26-1.39,.46-.31,1.08-.2,1.39,.26l3.2,4.65c.31,.46,.2,1.08-.26,1.39-.17,.12-.37,.18-.57,.18Z"/><path class="cls-1" d="M73.9,30.73c-.27,0-.54-.11-.74-.33-.37-.41-.34-1.04,.07-1.41l4.17-3.78c.41-.37,1.04-.34,1.41,.07,.37,.41,.34,1.04-.07,1.41l-4.17,3.78c-.19,.17-.43,.26-.67,.26Z"/><path class="cls-1" d="M89.38,26.95h-4.72c-.55,0-1-.45-1-1s.45-1,1-1h4.72c.55,0,1,.45,1,1s-.45,1-1,1Z"/><path class="cls-1" d="M95.71,36.08c-.55,0-1-.45-1-1v-7.24c0-.55,.45-1,1-1s1,.45,1,1v7.24c0,.55-.45,1-1,1Z"/><path class="cls-1" d="M90.47,38.28h-2.18c-.55,0-1-.45-1-1s.45-1,1-1h2.18c.55,0,1,.45,1,1s-.45,1-1,1Z"/><path class="cls-1" d="M96.87,42.21h-2.33c-.55,0-1-.45-1-1s.45-1,1-1h2.33c.55,0,1,.45,1,1s-.45,1-1,1Z"/><path class="cls-1" d="M75.99,46.13c-.55,0-1-.45-1-1v-1.16c0-.55,.45-1,1-1s1,.45,1,1v1.16c0,.55-.45,1-1,1Z"/><path class="cls-1" d="M70.49,24.04h-1.96c-.55,0-1-.45-1-1s.45-1,1-1h1.96c.55,0,1,.45,1,1s-.45,1-1,1Z"/><path class="cls-1" d="M75.36,24.04c-.36,0-.7-.19-.88-.53-.26-.49-.08-1.09,.41-1.35l2.71-1.45c.49-.26,1.09-.08,1.35,.41,.26,.49,.08,1.09-.41,1.35l-2.71,1.45c-.15,.08-.31,.12-.47,.12Z"/><path class="cls-1" d="M83.41,24.04c-.5,0-.93-.37-.99-.87l-.49-3.76c-.07-.55,.32-1.05,.86-1.12,.55-.08,1.05,.32,1.12,.86l.49,3.76c.07,.55-.32,1.05-.86,1.12-.04,0-.09,0-.13,0Z"/><path class="cls-1" d="M92.51,20.89h-4.21c-.55,0-1-.45-1-1s.45-1,1-1h4.21c.55,0,1,.45,1,1s-.45,1-1,1Z"/><path class="cls-1" d="M92.51,28.84c-.12,0-.24-.02-.36-.07-.51-.2-.77-.78-.57-1.3l1.35-3.46c.2-.52,.78-.77,1.3-.57,.51,.2,.77,.78,.57,1.3l-1.35,3.46c-.15,.4-.53,.64-.93,.64Z"/><path class="cls-1" d="M85.24,30.12h-5.03c-.55,0-1-.45-1-1s.45-1,1-1h5.03c.55,0,1,.45,1,1s-.45,1-1,1Z"/><path class="cls-1" d="M85.24,47c-.55,0-1-.45-1-1v-2.9c0-.55,.45-1,1-1s1,.45,1,1v2.9c0,.55-.45,1-1,1Z"/><path class="cls-1" d="M87.33,52.82h-2.43c-.55,0-1-.45-1-1s.45-1,1-1h2.43c.55,0,1,.45,1,1s-.45,1-1,1Z"/><path class="cls-1" d="M67.78,18.2s-.05,0-.08,0l-3.1-.24c-.55-.04-.96-.52-.92-1.08,.04-.55,.54-.96,1.08-.92l3.1,.24c.55,.04,.96,.52,.92,1.08-.04,.52-.48,.92-1,.92Z"/><path class="cls-1" d="M63.38,24.77s-.09,0-.14,0c-.55-.08-.93-.58-.85-1.13l.36-2.61c.08-.55,.58-.93,1.13-.85,.55,.08,.93,.58,.85,1.13l-.36,2.61c-.07,.5-.5,.86-.99,.86Z"/><path class="cls-1" d="M74.43,20.28c-.36,0-.71-.19-.88-.53-.26-.49-.07-1.09,.42-1.35l2.29-1.21c.49-.26,1.09-.07,1.35,.41,.26,.49,.07,1.09-.42,1.35l-2.29,1.21c-.15,.08-.31,.12-.47,.12Z"/><path class="cls-1" d="M87.02,16.88c-.15,0-.31-.04-.46-.11l-2.36-1.21c-.49-.25-.68-.86-.43-1.35,.25-.49,.86-.68,1.35-.43l2.36,1.21c.49,.25,.68,.86,.43,1.35-.18,.34-.53,.54-.89,.54Z"/><path class="cls-1" d="M78.31,14.81h-4.41c-.55,0-1-.45-1-1s.45-1,1-1h4.41c.55,0,1,.45,1,1s-.45,1-1,1Z"/><path class="cls-1" d="M95.71,22.16c-.55,0-1-.45-1-1v-5.89c0-.55,.45-1,1-1s1,.45,1,1v5.89c0,.55-.45,1-1,1Z"/><path class="cls-1" d="M90.47,17.48c-.28,0-.56-.12-.75-.34-.36-.42-.32-1.05,.1-1.41l.83-.73c.42-.36,1.05-.32,1.41,.1,.36,.42,.32,1.05-.1,1.41l-.83,.73c-.19,.17-.42,.25-.66,.25Z"/></g></svg>